<?xml version="1.0" encoding="utf-8"?>
<svg xmlns="http://www.w3.org/2000/svg"
	xmlns:xlink="http://www.w3.org/1999/xlink"
	width="47px" height="46px" viewBox="0 0 47 46">
<path fillRule="evenodd" d="M 45.99 26.81C 45.99 26.81 44.73 27.06 44.73 27.06 44.59 27.83 44.34 28.58 44 29.28 44 29.28 44.92 30.25 44.92 30.25 45.36 30.71 45.38 31.42 44.97 31.91 44.97 31.91 43.63 33.48 43.63 33.48 43.21 33.96 42.5 34.06 41.97 33.71 41.97 33.71 40.82 32.96 40.82 32.96 40.16 33.41 39.45 33.77 38.69 34.03 38.69 34.03 38.65 35.41 38.65 35.41 38.63 36.04 38.13 36.55 37.49 36.61 37.49 36.61 35.42 36.78 35.42 36.78 34.78 36.83 34.2 36.4 34.08 35.78 34.08 35.78 33.79 34.38 33.79 34.38 33.05 34.24 32.34 34 31.66 33.69 31.66 33.69 30.62 34.65 30.62 34.65 30.16 35.09 29.43 35.11 28.95 34.7 28.95 34.7 27.36 33.37 27.36 33.37 26.87 32.96 26.77 32.26 27.12 31.73 27.12 31.73 27.91 30.55 27.91 30.55 27.5 29.96 27.17 29.32 26.91 28.66 26.91 28.66 25.49 28.61 25.49 28.61 24.85 28.59 24.33 28.1 24.28 27.47 24.28 27.47 24.1 25.42 24.1 25.42 24.05 24.79 24.48 24.22 25.11 24.09 25.11 24.09 26.42 23.83 26.42 23.83 26.55 23.07 26.78 22.32 27.09 21.62 27.09 21.62 26.18 20.65 26.18 20.65 25.74 20.19 25.72 19.48 26.13 18.99 26.13 18.99 27.47 17.41 27.47 17.41 27.89 16.93 28.6 16.83 29.13 17.18 29.13 17.18 30.18 17.87 30.18 17.87 30.87 17.38 31.62 16.99 32.41 16.71 32.41 16.71 32.45 15.49 32.45 15.49 32.47 14.86 32.97 14.34 33.61 14.29 33.61 14.29 35.68 14.11 35.68 14.11 36.32 14.06 36.9 14.49 37.02 15.11 37.02 15.11 37.27 16.31 37.27 16.31 38.08 16.45 38.87 16.7 39.61 17.05 39.61 17.05 40.49 16.24 40.49 16.24 40.95 15.81 41.67 15.79 42.16 16.2 42.16 16.2 43.75 17.52 43.75 17.52 44.24 17.93 44.34 18.64 43.98 19.17 43.98 19.17 43.28 20.2 43.28 20.2 43.72 20.83 44.08 21.52 44.34 22.25 44.34 22.25 45.6 22.29 45.6 22.29 46.24 22.31 46.76 22.8 46.82 23.43 46.82 23.43 47 25.48 47 25.48 47.05 26.11 46.61 26.68 45.99 26.81ZM 35.25 21.34C 33.01 21.53 31.35 23.48 31.54 25.69 31.72 27.91 33.7 29.56 35.94 29.37 38.18 29.18 39.85 27.23 39.65 25.02 39.47 22.8 37.49 21.15 35.25 21.34ZM 26.73 16.44C 26.73 16.44 24.93 16.65 24.93 16.65 24.68 17.57 24.3 18.45 23.82 19.28 23.82 19.28 24.98 20.74 24.98 20.74 25.39 21.24 25.35 21.96 24.89 22.41 24.89 22.41 22.76 24.52 22.76 24.52 22.3 24.97 21.57 25.01 21.06 24.61 21.06 24.61 19.57 23.44 19.57 23.44 18.72 23.91 17.81 24.28 16.86 24.52 16.86 24.52 16.64 26.42 16.64 26.42 16.56 27.06 16.02 27.54 15.37 27.54 15.37 27.54 12.36 27.54 12.36 27.54 11.72 27.54 11.17 27.06 11.1 26.42 11.1 26.42 10.87 24.45 10.87 24.45 9.98 24.2 9.14 23.85 8.34 23.4 8.34 23.4 6.79 24.61 6.79 24.61 6.28 25.01 5.56 24.97 5.1 24.51 5.1 24.51 2.97 22.41 2.97 22.41 2.52 21.95 2.47 21.24 2.87 20.73 2.87 20.73 4.11 19.19 4.11 19.19 3.68 18.44 3.33 17.63 3.09 16.79 3.09 16.79 1.13 16.57 1.13 16.57 0.48 16.49-0 15.95-0 15.31-0 15.31-0 12.34-0 12.34-0 11.7 0.48 11.16 1.13 11.09 1.13 11.09 2.98 10.88 2.98 10.88 3.22 9.96 3.57 9.08 4.03 8.25 4.03 8.25 2.87 6.8 2.87 6.8 2.47 6.3 2.51 5.58 2.97 5.12 2.97 5.12 5.1 3.02 5.1 3.02 5.56 2.57 6.28 2.53 6.79 2.93 6.79 2.93 8.18 4.01 8.18 4.01 9.07 3.49 10.02 3.09 11.02 2.83 11.02 2.83 11.22 1.12 11.22 1.12 11.29 0.48 11.84-0 12.48-0 12.48-0 15.49-0 15.49-0 16.14-0 16.68 0.48 16.76 1.12 16.76 1.12 16.96 2.83 16.96 2.83 17.93 3.09 18.86 3.47 19.73 3.97 19.73 3.97 21.06 2.93 21.06 2.93 21.57 2.53 22.3 2.57 22.76 3.02 22.76 3.02 24.88 5.12 24.88 5.12 25.34 5.57 25.38 6.29 24.98 6.79 24.98 6.79 23.89 8.16 23.89 8.16 24.35 8.97 24.72 9.85 24.96 10.76 24.96 10.76 26.73 10.96 26.73 10.96 27.37 11.04 27.86 11.58 27.86 12.21 27.86 12.21 27.86 15.19 27.86 15.19 27.86 15.83 27.37 16.37 26.73 16.44ZM 13.99 8.74C 11.25 8.74 9.01 10.95 9.01 13.66 9.01 16.37 11.25 18.58 13.99 18.58 16.73 18.58 18.97 16.37 18.97 13.66 18.97 10.95 16.73 8.74 13.99 8.74ZM 10.34 34.88C 10.34 34.88 11.22 34.79 11.22 34.79 11.38 34.18 11.63 33.6 11.94 33.05 11.94 33.05 11.4 32.36 11.4 32.36 11.01 31.86 11.06 31.15 11.52 30.7 11.52 30.7 12.43 29.82 12.43 29.82 12.89 29.37 13.61 29.34 14.11 29.74 14.11 29.74 14.74 30.25 14.74 30.25 15.33 29.91 15.97 29.65 16.64 29.48 16.64 29.48 16.74 28.71 16.74 28.71 16.82 28.08 17.36 27.61 18 27.62 18 27.62 19.28 27.63 19.28 27.63 19.92 27.64 20.45 28.12 20.52 28.75 20.52 28.75 20.6 29.53 20.6 29.53 21.25 29.71 21.86 29.98 22.44 30.32 22.44 30.32 23.05 29.86 23.05 29.86 23.56 29.47 24.27 29.52 24.72 29.97 24.72 29.97 25.61 30.87 25.61 30.87 26.06 31.33 26.09 32.04 25.69 32.53 25.69 32.53 25.18 33.15 25.18 33.15 25.48 33.7 25.71 34.28 25.87 34.89 25.87 34.89 26.69 35 26.69 35 27.32 35.08 27.8 35.61 27.79 36.25 27.79 36.25 27.77 37.51 27.77 37.51 27.77 38.14 27.28 38.67 26.64 38.74 26.64 38.74 25.8 38.82 25.8 38.82 25.63 39.43 25.37 40.02 25.04 40.56 25.04 40.56 25.58 41.26 25.58 41.26 25.97 41.76 25.92 42.47 25.46 42.91 25.46 42.91 24.55 43.8 24.55 43.8 24.09 44.24 23.37 44.27 22.87 43.87 22.87 43.87 22.17 43.31 22.17 43.31 21.59 43.62 20.99 43.85 20.35 44 20.35 44 20.24 44.91 20.24 44.91 20.16 45.54 19.61 46.01 18.97 46 18.97 46 17.7 45.98 17.7 45.98 17.06 45.98 16.52 45.5 16.46 44.87 16.46 44.87 16.36 43.91 16.36 43.91 15.77 43.74 15.21 43.5 14.68 43.19 14.68 43.19 13.93 43.76 13.93 43.76 13.42 44.15 12.71 44.1 12.26 43.65 12.26 43.65 11.36 42.74 11.36 42.74 10.92 42.29 10.89 41.58 11.29 41.09 11.29 41.09 11.89 40.35 11.89 40.35 11.61 39.84 11.38 39.3 11.23 38.74 11.23 38.74 10.29 38.62 10.29 38.62 9.66 38.54 9.18 38 9.19 37.37 9.19 37.37 9.21 36.11 9.21 36.11 9.21 35.48 9.7 34.95 10.34 34.88ZM 18.49 40.02C 20.32 40.04 21.83 38.59 21.85 36.78 21.87 34.97 20.4 33.48 18.57 33.46 16.74 33.44 15.23 34.89 15.21 36.7 15.19 38.51 16.66 40 18.49 40.02Z" fill="rgb(255,255,255)"/></svg>