<?xml version="1.0" encoding="utf-8"?>
<svg xmlns="http://www.w3.org/2000/svg"
	xmlns:xlink="http://www.w3.org/1999/xlink"
	width="43px" height="43px" viewBox="0 0 43 43">
<path fillRule="evenodd" d="M 43 5.53C 43 5.53 36.55 6.45 36.55 6.45 36.55 6.45 37.47-0 37.47-0 37.47-0 32.57 4.91 32.57 4.91 29.23 2.63 25.19 1.3 20.85 1.3 9.33 1.3-0 10.64-0 22.15-0 33.67 9.33 43 20.85 43 32.36 43 41.7 33.67 41.7 22.15 41.7 17.81 40.37 13.77 38.09 10.43 38.09 10.43 43 5.53 43 5.53ZM 20.85 37.79C 12.21 37.79 5.21 30.79 5.21 22.15 5.21 13.52 12.21 6.51 20.85 6.51 24.46 6.51 27.79 7.74 30.44 9.8 30.44 9.8 26.71 13.53 26.71 13.53 25.04 12.39 23.02 11.73 20.85 11.73 15.09 11.73 10.42 16.39 10.42 22.15 10.42 27.91 15.09 32.58 20.85 32.58 26.61 32.58 31.27 27.91 31.27 22.15 31.27 19.98 30.61 17.96 29.47 16.29 29.47 16.29 33.2 12.56 33.2 12.56 35.26 15.21 36.48 18.54 36.48 22.15 36.48 30.79 29.48 37.79 20.85 37.79ZM 19.97 23.03C 20.73 23.8 21.97 23.8 22.73 23.03 22.73 23.03 25.65 20.12 25.65 20.12 25.91 20.74 26.06 21.43 26.06 22.15 26.06 25.03 23.73 27.36 20.85 27.36 17.97 27.36 15.64 25.03 15.64 22.15 15.64 19.27 17.97 16.94 20.85 16.94 21.57 16.94 22.26 17.09 22.88 17.35 22.88 17.35 19.97 20.27 19.97 20.27 19.2 21.03 19.2 22.27 19.97 23.03Z" fill="rgb(255,255,255)"/></svg>