<?xml version="1.0" encoding="utf-8"?>
<svg xmlns="http://www.w3.org/2000/svg"
	xmlns:xlink="http://www.w3.org/1999/xlink"
	width="16px" height="16px" viewBox="0 0 16 16">
<path fillRule="evenodd" d="M 11.79 3.82C 11.79 3.82 8.58 3.97 7.45 4.02 6.74 4.05 6.36 3.45 6.98 2.83 7.46 2.36 7.63 2.23 7.55 1.34 7.46 0.32 6.44-0.01 5.6 0 4.73 0.01 3.77 0.47 3.49 1.31 3.3 1.86 3.31 2.41 3.79 2.77 4.05 2.96 4.63 3.24 3.98 3.76 3.63 4.04 0.1 3.71 0.1 3.71 0.1 3.71-0.06 6.74 0.05 7.6 0.12 8.09 0.73 8.33 1.13 7.79 1.76 6.96 3.47 7.5 3.56 9.12 3.65 10.82 1.83 11.09 1.44 10.42 1.08 9.8 0.05 9.65 0 10.44-0.07 11.67 0.51 15.59 0.51 15.59 0.51 15.59 2.83 16.13 3.88 15.96 4.36 15.89 4.59 15.05 4.14 14.66 3.72 14.29 3.63 12.36 5.8 12.59 7.49 12.76 7.2 14.23 6.77 14.5 6.36 14.76 6.38 15.56 7.24 15.79 8.42 16.1 11.99 15.33 11.99 15.33 11.99 15.33 11.52 12.44 11.67 11.51 11.84 10.5 12.99 11.11 13.14 11.3 14.07 12.54 16 11.86 16 9.78 16 6.75 13.24 7.27 12.98 8 12.7 8.8 11.75 8.59 11.64 8.1 11.4 6.95 11.79 3.82 11.79 3.82Z" fill="rgb(37,127,191)"/></svg>