<?xml version="1.0" encoding="utf-8"?>
<svg xmlns="http://www.w3.org/2000/svg"
	xmlns:xlink="http://www.w3.org/1999/xlink"
	width="39px" height="38px" viewBox="0 0 39 38">
<path fillRule="evenodd" d="M 37.94 23.09C 37.22 22.13 36.23 21.66 34.95 21.66 34.27 21.66 33.63 21.78 33 22.02 32.38 22.26 31.87 22.53 31.49 22.83 31.11 23.13 30.69 23.4 30.25 23.64 29.8 23.88 29.41 24 29.06 24 28.36 24 27.67 23.63 26.98 22.89 26.43 22.3 26.16 21.35 26.16 20.06 26.16 18.53 26.34 16.56 26.72 14.14 26.74 14.09 26.76 13.92 26.8 13.62 26.84 13.32 26.88 13.05 26.92 12.8 26.96 12.55 26.98 12.41 27 12.38 27 12.38 27 12.33 27 12.33 26.27 12.36 24.99 12.5 23.18 12.74 21.37 12.98 19.96 13.1 18.96 13.1 18.01 13.1 17.2 12.89 16.55 12.46 15.89 12.03 15.56 11.36 15.56 10.44 15.56 9.85 15.7 9.27 15.97 8.73 16.25 8.18 16.54 7.72 16.86 7.36 17.18 7 17.48 6.52 17.75 5.93 18.03 5.34 18.16 4.72 18.16 4.06 18.16 2.79 17.74 1.79 16.9 1.07 16.05 0.36 15.01-0 13.76-0 12.43-0 11.3 0.36 10.38 1.1 9.46 1.83 9 2.86 9 4.18 9 4.87 9.12 5.54 9.35 6.19 9.59 6.83 9.85 7.35 10.14 7.75 10.43 8.14 10.69 8.57 10.92 9.03 11.16 9.49 11.27 9.89 11.27 10.25 11.27 10.97 10.91 11.69 10.19 12.4 9.62 12.96 8.7 13.25 7.45 13.25 5.97 13.25 4.05 13.05 1.71 12.67 1.66 12.65 1.5 12.62 1.21 12.58 0.92 12.54 0.65 12.5 0.41 12.46 0.17 12.42 0.03 12.39-0 12.38-0 12.38-0 37.13-0 37.13-0 37.15 0.01 37.16 0.05 37.16 0.08 37.17 0.1 37.18 0.12 37.18 0.12 37.18 0.42 37.23 0.42 37.23 0.56 37.26 0.78 37.29 1.07 37.32 1.35 37.36 1.57 37.39 1.71 37.42 4.05 37.81 5.97 38 7.45 38 8.7 38 9.62 37.72 10.19 37.15 10.91 36.45 11.27 35.73 11.27 35 11.27 34.65 11.16 34.24 10.92 33.78 10.69 33.32 10.43 32.9 10.14 32.5 9.85 32.11 9.59 31.59 9.35 30.94 9.12 30.3 9 29.63 9 28.94 9 27.61 9.46 26.59 10.38 25.85 11.3 25.12 12.42 24.75 13.73 24.75 15 24.75 16.05 25.11 16.9 25.83 17.74 26.55 18.16 27.54 18.16 28.81 18.16 29.47 18.03 30.1 17.75 30.69 17.48 31.28 17.18 31.75 16.86 32.11 16.54 32.48 16.25 32.93 15.97 33.48 15.7 34.03 15.56 34.6 15.56 35.2 15.56 36.12 15.89 36.79 16.55 37.22 17.2 37.64 18.01 37.86 18.96 37.86 19.68 37.86 20.45 37.82 21.26 37.74 22.07 37.65 22.97 37.55 23.97 37.41 24.96 37.27 25.72 37.18 26.25 37.13 26.42 37.11 26.68 37.11 27.02 37.11 27.02 37.11 27.02 36.99 27.02 36.99 27.04 36.36 26.92 35.43 26.67 34.21 26.42 32.98 26.3 32.05 26.3 31.42 26.3 29.43 27.16 28.43 28.88 28.43 29.45 28.43 30.01 28.57 30.54 28.85 31.07 29.13 31.51 29.44 31.86 29.77 32.22 30.1 32.68 30.41 33.25 30.69 33.82 30.97 34.42 31.11 35.06 31.11 36.3 31.11 37.26 30.68 37.96 29.81 38.65 28.94 39 27.85 39 26.54 39 25.19 38.65 24.04 37.94 23.09Z" fill="rgb(255,255,255)"/></svg>